<svg width="19" height="20" viewBox="0 0 19 20" fill="none" xmlns="http://www.w3.org/2000/svg">
<path d="M9.73204 2.21191C5.46175 2.21191 2 5.83332 2 10.3006C2 14.7678 5.46175 18.3892 9.73204 18.3892C14.0023 18.3892 17.4641 14.7678 17.4641 10.3006C17.4641 5.83332 14.0023 2.21191 9.73204 2.21191Z" stroke="black" stroke-width="3" stroke-linecap="round" stroke-linejoin="round"/>
<path d="M3.7561 15.4336C3.7561 15.4336 5.47959 13.1318 9.73219 13.1318C13.9848 13.1318 15.7084 15.4336 15.7084 15.4336" stroke="black" stroke-width="3" stroke-linecap="round" stroke-linejoin="round"/>
<path d="M9.73196 10.3005C11.0131 10.3005 12.0516 9.21407 12.0516 7.87386C12.0516 6.53369 11.0131 5.44727 9.73196 5.44727C8.45084 5.44727 7.41235 6.53369 7.41235 7.87386C7.41235 9.21407 8.45084 10.3005 9.73196 10.3005Z" stroke="black" stroke-width="3" stroke-linecap="round" stroke-linejoin="round"/>
</svg>
